<svg width="146" height="47" viewBox="0 0 146 47" fill="none" xmlns="http://www.w3.org/2000/svg">
<path d="M6.90341 2.09091V37H0.732955V2.09091H6.90341ZM13.2486 37V10.8182H19.419V37H13.2486ZM16.3509 7.10227C15.3736 7.10227 14.5327 6.77841 13.8281 6.13068C13.1236 5.47159 12.7713 4.68182 12.7713 3.76136C12.7713 2.82954 13.1236 2.03977 13.8281 1.39204C14.5327 0.732953 15.3736 0.403408 16.3509 0.403408C17.3395 0.403408 18.1804 0.732953 18.8736 1.39204C19.5781 2.03977 19.9304 2.82954 19.9304 3.76136C19.9304 4.68182 19.5781 5.47159 18.8736 6.13068C18.1804 6.77841 17.3395 7.10227 16.3509 7.10227ZM26.0369 37V2.09091H32.2074V15.1477H32.4631C32.7813 14.5114 33.2301 13.8352 33.8097 13.1193C34.3892 12.392 35.1733 11.7727 36.1619 11.2614C37.1506 10.7386 38.4119 10.4773 39.946 10.4773C41.9688 10.4773 43.7926 10.9943 45.4176 12.0284C47.054 13.0511 48.3494 14.5682 49.304 16.5795C50.2699 18.5795 50.7528 21.0341 50.7528 23.9432C50.7528 26.8182 50.2813 29.2614 49.3381 31.2727C48.3949 33.2841 47.1108 34.8182 45.4858 35.875C43.8608 36.9318 42.0199 37.4602 39.9631 37.4602C38.4631 37.4602 37.2188 37.2102 36.2301 36.7102C35.2415 36.2102 34.446 35.608 33.8438 34.9034C33.2528 34.1875 32.7926 33.5114 32.4631 32.875H32.1051V37H26.0369ZM32.0881 23.9091C32.0881 25.6023 32.3267 27.0852 32.804 28.358C33.2926 29.6307 33.9915 30.625 34.9006 31.3409C35.821 32.0455 36.9347 32.3977 38.2415 32.3977C39.6051 32.3977 40.7472 32.0341 41.6676 31.3068C42.5881 30.5682 43.2813 29.5625 43.7472 28.2898C44.2244 27.0057 44.4631 25.5455 44.4631 23.9091C44.4631 22.2841 44.2301 20.8409 43.7642 19.5795C43.2983 18.3182 42.6051 17.3295 41.6847 16.6136C40.7642 15.8977 39.6165 15.5398 38.2415 15.5398C36.9233 15.5398 35.804 15.8864 34.8835 16.5795C33.9631 17.2727 33.2642 18.2443 32.7869 19.4943C32.321 20.7443 32.0881 22.2159 32.0881 23.9091ZM55.9986 37V10.8182H61.9815V15.1818H62.2543C62.7315 13.6705 63.5497 12.5057 64.7088 11.6875C65.8793 10.858 67.2145 10.4432 68.7145 10.4432C69.0554 10.4432 69.4361 10.4602 69.8565 10.4943C70.2884 10.517 70.6463 10.5568 70.9304 10.6136V16.2898C70.669 16.1989 70.2543 16.1193 69.6861 16.0511C69.1293 15.9716 68.5895 15.9318 68.0668 15.9318C66.9418 15.9318 65.9304 16.1761 65.0327 16.6648C64.1463 17.142 63.4474 17.8068 62.9361 18.6591C62.4247 19.5114 62.169 20.4943 62.169 21.608V37H55.9986ZM82.0952 37.5284C80.4361 37.5284 78.9418 37.233 77.6122 36.642C76.294 36.0398 75.2486 35.1534 74.4759 33.983C73.7145 32.8125 73.3338 31.3693 73.3338 29.6534C73.3338 28.1761 73.6065 26.9545 74.152 25.9886C74.6974 25.0227 75.4418 24.25 76.3849 23.6705C77.3281 23.0909 78.3906 22.6534 79.5724 22.358C80.7656 22.0511 81.9986 21.8295 83.2713 21.6932C84.8054 21.5341 86.0497 21.392 87.0043 21.267C87.9588 21.1307 88.652 20.9261 89.0838 20.6534C89.527 20.3693 89.7486 19.9318 89.7486 19.3409V19.2386C89.7486 17.9545 89.3679 16.9602 88.6065 16.2557C87.8452 15.5511 86.7486 15.1989 85.3168 15.1989C83.8054 15.1989 82.6065 15.5284 81.7202 16.1875C80.8452 16.8466 80.2543 17.625 79.9474 18.5227L74.1861 17.7045C74.6406 16.1136 75.3906 14.7841 76.4361 13.7159C77.4815 12.6364 78.7599 11.8295 80.2713 11.2955C81.7827 10.75 83.4531 10.4773 85.2827 10.4773C86.544 10.4773 87.7997 10.625 89.0497 10.9205C90.2997 11.2159 91.4418 11.7045 92.4759 12.3864C93.5099 13.0568 94.3395 13.9716 94.9645 15.1307C95.6009 16.2898 95.919 17.7386 95.919 19.4773V37H89.9872V33.4034H89.7827C89.4077 34.1307 88.8793 34.8125 88.1974 35.4489C87.527 36.0739 86.6804 36.5795 85.6577 36.9659C84.6463 37.3409 83.4588 37.5284 82.0952 37.5284ZM83.6974 32.9943C84.9361 32.9943 86.0099 32.75 86.919 32.2614C87.8281 31.7614 88.527 31.1023 89.0156 30.2841C89.5156 29.4659 89.7656 28.5739 89.7656 27.608V24.5227C89.5724 24.6818 89.2429 24.8295 88.777 24.9659C88.3224 25.1023 87.8111 25.2216 87.2429 25.3239C86.6747 25.4261 86.1122 25.517 85.5554 25.5966C84.9986 25.6761 84.5156 25.7443 84.1065 25.8011C83.1861 25.9261 82.3622 26.1307 81.6349 26.4148C80.9077 26.6989 80.3338 27.0966 79.9134 27.608C79.4929 28.108 79.2827 28.7557 79.2827 29.5511C79.2827 30.6875 79.6974 31.5455 80.527 32.125C81.3565 32.7045 82.4134 32.9943 83.6974 32.9943ZM102.124 37V10.8182H108.107V15.1818H108.379C108.857 13.6705 109.675 12.5057 110.834 11.6875C112.004 10.858 113.339 10.4432 114.839 10.4432C115.18 10.4432 115.561 10.4602 115.982 10.4943C116.413 10.517 116.771 10.5568 117.055 10.6136V16.2898C116.794 16.1989 116.379 16.1193 115.811 16.0511C115.254 15.9716 114.714 15.9318 114.192 15.9318C113.067 15.9318 112.055 16.1761 111.158 16.6648C110.271 17.142 109.572 17.8068 109.061 18.6591C108.55 19.5114 108.294 20.4943 108.294 21.608V37H102.124ZM125.787 46.8182C124.946 46.8182 124.168 46.75 123.452 46.6136C122.747 46.4886 122.185 46.3409 121.764 46.1705L123.196 41.3636C124.094 41.625 124.895 41.75 125.599 41.7386C126.304 41.7273 126.923 41.5057 127.457 41.0739C128.003 40.6534 128.463 39.9489 128.838 38.9602L129.366 37.5455L119.872 10.8182H126.418L132.452 30.5909H132.724L138.776 10.8182H145.338L134.855 40.1705C134.366 41.5568 133.719 42.7443 132.912 43.733C132.105 44.733 131.116 45.4943 129.946 46.017C128.787 46.5511 127.401 46.8182 125.787 46.8182Z" fill="black"/>
</svg>
